<svg width="20" height="20" viewBox="0 0 20 20" fill="none" xmlns="http://www.w3.org/2000/svg">
<path d="M6.66665 4.16667C6.66665 4.60869 6.84224 5.03262 7.1548 5.34518C7.46736 5.65774 7.89129 5.83333 8.33331 5.83333H11.6666C12.1087 5.83333 12.5326 5.65774 12.8452 5.34518C13.1577 5.03262 13.3333 4.60869 13.3333 4.16667M6.66665 4.16667H4.99998C4.55795 4.16667 4.13403 4.34226 3.82147 4.65482C3.50891 4.96738 3.33331 5.39131 3.33331 5.83333V15.8333C3.33331 16.2754 3.50891 16.6993 3.82147 17.0118C4.13403 17.3244 4.55795 17.5 4.99998 17.5H15C15.442 17.5 15.8659 17.3244 16.1785 17.0118C16.4911 16.6993 16.6666 16.2754 16.6666 15.8333V5.83333C16.6666 5.39131 16.4911 4.96738 16.1785 4.65482C15.8659 4.34226 15.442 4.16667 15 4.16667H13.3333H6.66665ZM6.66665 4.16667C6.66665 3.72464 6.84224 3.30072 7.1548 2.98816C7.46736 2.67559 7.89129 2.5 8.33331 2.5H11.6666C12.1087 2.5 12.5326 2.67559 12.8452 2.98816C13.1577 3.30072 13.3333 3.72464 13.3333 4.16667H6.66665Z" stroke="#2D2F48" stroke-width="1.7" stroke-linecap="round" stroke-linejoin="round"/>
<path d="M7.5 11.6665L9.16667 13.3332L12.5 9.1665" stroke="#2D2F48" stroke-width="1.7" stroke-linecap="round" stroke-linejoin="round"/>
</svg>
